<?xml version="1.0" standalone="no"?>
<!DOCTYPE svg PUBLIC "-//W3C//DTD SVG 20010904//EN"
 "http://www.w3.org/TR/2001/REC-SVG-20010904/DTD/svg10.dtd">
<svg version="1.0" xmlns="http://www.w3.org/2000/svg"
 width="700.000000pt" height="700.000000pt" viewBox="0 0 700.000000 700.000000"
 preserveAspectRatio="xMidYMid meet">
<metadata>
Created by potrace 1.11, written by Peter Selinger 2001-2013
</metadata>
<g transform="translate(0.000000,700.000000) scale(0.100000,-0.100000)"
fill="#000000" stroke="none">
<path d="M1875 6936 c-61 -34 -200 -114 -310 -178 -110 -63 -276 -159 -370
-213 -93 -53 -222 -128 -285 -165 -63 -37 -135 -79 -160 -92 -25 -14 -82 -48
-128 -74 -46 -27 -98 -57 -117 -67 l-35 -17 0 -878 0 -877 407 -235 c224 -129
415 -239 425 -245 10 -5 54 -31 100 -57 45 -27 85 -48 90 -48 4 0 8 -4 8 -9 0
-5 6 -11 13 -13 10 -2 256 -141 317 -179 8 -5 46 -26 84 -48 68 -39 69 -39 45
-54 -36 -22 -140 -83 -179 -105 -59 -33 -871 -501 -930 -536 -30 -18 -128 -75
-217 -126 l-163 -94 0 -875 0 -876 63 -37 c56 -33 531 -307 617 -356 83 -47
174 -100 345 -199 353 -206 476 -273 487 -267 7 4 8 3 4 -4 -9 -14 6 -16 19
-3 9 8 94 59 223 132 101 58 206 119 587 339 231 133 436 252 455 263 19 11
49 28 65 38 17 10 46 26 65 37 19 11 208 120 420 242 340 197 487 282 610 352
19 11 125 72 235 136 110 63 382 220 605 349 223 128 412 238 420 243 8 5 37
22 65 36 27 15 60 34 75 44 14 9 72 44 129 76 113 64 136 77 355 204 80 47
162 94 181 104 l35 20 0 877 0 877 -692 400 c-381 220 -798 460 -926 533 -128
74 -254 147 -280 162 -26 15 -56 32 -67 37 -11 6 -36 20 -55 31 -56 34 -878
509 -950 549 -36 20 -191 110 -345 200 -154 89 -300 174 -325 188 -25 14 -101
58 -170 97 -69 40 -150 87 -180 104 -30 17 -62 35 -70 40 -18 11 -389 225
-445 257 l-41 23 -109 -63z"/>
</g>
</svg>
